# Blender v2.79 (sub 0) OBJ File: 'scene.blend1'
# www.blender.org
o mold
v 4.965578 1.671693 -0.955683
v 4.965578 1.671694 -3.675775
v 4.965578 3.305831 -3.675775
v 4.965578 3.305831 -0.955683
v 4.986282 1.671693 -0.955683
v 4.986282 1.671694 -3.675775
v 4.991412 1.666564 -3.680766
v 4.991412 1.650677 -3.675775
v 4.991412 1.650677 -3.682741
v 4.991412 1.651397 -3.687159
v 4.991412 1.653298 -3.690790
v 4.991412 1.656260 -3.693671
v 4.991412 1.659994 -3.695522
v 4.991412 1.664534 -3.696222
v 4.991412 1.671694 -3.696222
v 4.991412 3.310960 -0.950692
v 4.991412 3.326847 -0.955683
v 4.991412 3.326847 -0.948717
v 4.991412 3.326129 -0.944299
v 4.991412 3.324227 -0.940668
v 4.991412 3.321266 -0.937787
v 4.991412 3.317532 -0.935937
v 4.991412 3.312992 -0.935237
v 4.991412 3.305831 -0.935237
v 4.991412 1.650677 -0.955683
v 4.991412 1.666564 -0.950692
v 4.991412 1.671693 -0.935237
v 4.991412 1.664534 -0.935237
v 4.991412 1.659994 -0.935937
v 4.991412 1.656260 -0.937787
v 4.991412 1.653298 -0.940668
v 4.991412 1.651397 -0.944299
v 4.991412 1.650677 -0.948717
v 4.986282 3.305831 -3.675775
v 4.986282 3.305831 -0.955683
v 4.991412 3.310961 -3.680766
v 4.991412 3.305831 -3.696222
v 4.991412 3.326847 -3.675775
v 4.991412 3.312992 -3.696222
v 4.991412 3.317532 -3.695522
v 4.991412 3.321266 -3.693671
v 4.991412 3.324227 -3.690790
v 4.991412 3.326129 -3.687159
v 4.991412 3.326847 -3.682741
v 4.986282 3.331068 -3.688720
v 4.986282 3.331977 -3.683133
v 4.986282 3.328429 -3.693760
v 4.986282 3.324317 -3.697759
v 4.986282 3.319138 -3.700328
v 4.986282 3.313395 -3.701212
v 4.986282 3.331977 -0.948324
v 4.986282 3.331068 -0.942738
v 4.986282 3.328429 -0.937698
v 4.986282 3.324317 -0.933699
v 4.986282 3.319138 -0.931130
v 4.986282 3.313395 -0.930246
v 4.986282 1.645547 -3.683133
v 4.986282 1.646458 -3.688720
v 4.986282 1.649097 -3.693760
v 4.986282 1.653208 -3.697759
v 4.986282 1.658388 -3.700328
v 4.986282 1.664131 -3.701212
v 4.986282 1.646458 -0.942738
v 4.986282 1.645547 -0.948324
v 4.986282 1.649097 -0.937698
v 4.986282 1.653208 -0.933699
v 4.986282 1.658388 -0.931131
v 4.986282 1.664131 -0.930246
v 4.986282 3.305831 -0.930246
v 4.986282 3.331977 -0.955683
v 4.986282 1.671693 -0.930246
v 4.986282 1.645547 -0.955683
v 4.986282 3.331977 -3.675775
v 4.986282 3.305831 -3.701212
v 4.986282 1.671694 -3.701212
v 4.986282 1.645547 -3.675775
v 4.925135 3.313395 -0.930246
v 4.925135 3.305831 -0.930246
v 4.925135 3.331977 -3.683133
v 4.925135 3.331977 -3.675775
v 4.925135 1.645547 -0.955683
v 4.925135 1.645547 -3.675775
v 4.925135 3.305831 -3.701212
v 4.925135 3.313395 -3.701212
v 4.925135 1.671693 -0.930246
v 4.925135 1.664131 -0.930246
v 4.925135 1.664131 -3.701212
v 4.925135 1.671694 -3.701212
v 4.925135 3.331977 -0.955683
v 4.925135 1.645547 -3.683133
v 4.925135 3.331977 -0.948324
v 4.925135 1.645547 -0.948324
v 4.925135 3.331068 -0.942738
v 4.925135 3.324317 -3.697759
v 4.925135 3.319138 -3.700328
v 4.925135 1.646458 -3.688720
v 4.925135 3.331068 -3.688720
v 4.925135 3.328429 -3.693760
v 4.925135 3.319138 -0.931130
v 4.925135 3.328429 -0.937698
v 4.925135 3.324317 -0.933699
v 4.925135 1.658388 -0.931131
v 4.925135 1.658388 -3.700328
v 4.925135 1.649097 -3.693760
v 4.925135 1.653208 -3.697759
v 4.925135 1.653208 -0.933699
v 4.925135 1.646458 -0.942738
v 4.925135 1.649097 -0.937698
vt 0.000000 0.000000
vt 1.000000 0.000000
vt 1.000000 0.000000
vt 0.549852 0.000000
vt 0.643001 0.000000
vt 0.956236 0.000000
vt 0.000000 0.549852
vt 0.000000 0.643001
vt 0.000000 0.956236
vt 0.000000 0.000000
vt 0.000000 0.000000
vt 0.000000 0.000000
vt 1.000000 1.000000
vt 1.000000 1.000000
vt 0.000000 1.000000
vt 0.000000 1.000000
vt 1.000000 -0.003139
vt 1.000000 1.000000
vt 1.000000 1.003139
vt 0.643001 0.643001
vt 0.848797 0.848797
vt 0.956236 0.956236
vt 0.000000 1.003139
vt 0.000000 0.000000
vt 0.000000 -0.003139
vt 1.001835 1.000000
vt 0.000000 1.000000
vt -0.001835 1.000000
vt -0.001835 0.000000
vt 1.000000 0.000000
vt 1.001835 0.000000
vt 0.000000 0.000000
vt 1.000000 1.000000
vt 0.549852 0.549852
vt 0.307534 0.307534
vt 0.549852 0.549852
vt 0.307535 0.307535
vt 0.643001 0.643001
vt 0.307535 0.307535
vt 1.000000 1.000000
vt 0.333333 0.333333
vt 0.000000 0.643001
vt 0.000000 1.000000
vt 0.000000 0.333333
vt 0.000000 0.549852
vt 0.000000 0.307534
vt 0.000000 0.307535
vt 0.000000 0.307535
vt 0.000000 0.307535
vt 0.000000 1.000000
vt 0.000000 0.848797
vt 0.643001 0.000000
vt 1.000000 0.000000
vt 0.333333 0.000000
vt 0.549852 0.000000
vt 0.307534 0.000000
vt 0.307535 0.000000
vt 0.307535 0.000000
vt 0.307535 0.000000
vt 1.000000 0.000000
vt 0.848797 0.000000
vt 0.000000 0.000000
vt 0.000000 0.000000
vt 0.000000 0.000000
vt 0.000000 0.000000
vt 0.000000 0.000000
vt 0.000000 0.000000
vt 0.000000 0.000000
vt 0.000000 0.000000
vt 0.000000 0.000000
vt 0.000000 1.000000
vt 0.000000 1.000000
vt 0.000000 0.848797
vt 0.000000 1.000000
vt 0.000000 0.000000
vt 0.000000 0.000000
vt 0.000000 0.000000
vt 0.000000 0.000000
vt 1.000000 1.000000
vt 1.000000 1.000000
vt 0.848797 0.848797
vt 1.000000 1.000000
vt 1.000000 0.000000
vt 1.000000 0.000000
vt 0.848797 0.000000
vt 1.000000 0.000000
vt 0.000000 0.000000
vt 0.000000 0.000000
vt 0.000000 0.000000
vt 0.000000 0.000000
vt 0.000000 0.000000
vt 0.000000 0.000000
vt 0.000000 0.000000
vt 0.000000 0.000000
vt 0.000000 0.000000
vt 0.000000 0.000000
vt 0.000000 0.000000
vt 0.000000 0.000000
vt 0.000000 0.000000
vt 0.000000 0.000000
vt 0.000000 0.000000
vt 0.000000 0.000000
vt 0.000000 0.000000
vt 0.000000 0.000000
vt 0.000000 0.000000
vt 0.000000 0.000000
vt 0.000000 0.000000
vt 0.000000 0.000000
vt 0.000000 0.000000
vt 0.000000 0.000000
vt 0.000000 0.000000
vt 0.000000 0.000000
vt 0.000000 0.000000
vt 0.000000 0.000000
vt 0.000000 0.000000
vt 0.000000 0.000000
vt 0.000000 0.000000
vt 0.000000 0.000000
vt 0.000000 0.000000
vt 0.000000 0.000000
vt 0.000000 0.000000
vt 0.000000 0.000000
vt 0.000000 0.000000
vt 0.000000 0.000000
vt 0.000000 0.000000
vt 0.000000 0.000000
vt 0.307535 0.307535
vt 0.000000 0.000000
vt 0.000000 0.000000
vt 0.000000 0.000000
vt 0.000000 0.000000
vt 0.000000 0.000000
vt 0.000000 0.000000
vt 0.333333 0.333333
vt 0.000000 0.333333
vt 0.333333 0.000000
vt 0.000000 0.000000
vt 0.000000 0.000000
vt 0.000000 0.000000
vt 0.000000 0.000000
vn 0.0000 1.0000 0.0000
vn 1.0000 0.0000 0.0000
vn 1.0000 0.0001 0.0000
vn 0.0000 0.0000 1.0000
vn 0.0000 -1.0000 -0.0000
vn 0.6973 0.0000 -0.7168
vn 0.7071 0.7071 0.0000
vn 0.6973 0.0000 0.7168
vn 0.7071 -0.7071 -0.0000
vn 0.7104 0.6673 -0.2234
vn 0.7081 0.7038 -0.0567
vn 0.7081 0.7038 -0.0569
vn 0.7080 0.5653 -0.4234
vn 0.7104 0.6679 -0.2219
vn 0.7050 0.4086 -0.5797
vn 0.7081 0.5667 -0.4212
vn 0.7027 0.2139 -0.6786
vn 0.7051 0.4106 -0.5782
vn 0.6985 0.0547 -0.7135
vn 0.7027 0.2154 -0.6781
vn 0.7105 0.6673 0.2234
vn 0.7081 0.7038 0.0568
vn 0.7105 0.6678 0.2219
vn 0.7080 0.5652 0.4233
vn 0.7081 0.5667 0.4212
vn 0.7050 0.4085 0.5797
vn 0.7051 0.4106 0.5782
vn 0.7027 0.2139 0.6786
vn 0.7027 0.2154 0.6781
vn 0.6985 0.0548 0.7135
vn 0.6985 0.0546 0.7136
vn 0.7104 -0.6673 -0.2236
vn 0.7081 -0.7038 -0.0568
vn 0.7105 -0.6678 -0.2220
vn 0.7080 -0.5653 -0.4233
vn 0.7081 -0.5667 -0.4212
vn 0.7050 -0.4086 -0.5797
vn 0.7051 -0.4106 -0.5781
vn 0.7027 -0.2139 -0.6786
vn 0.7027 -0.2154 -0.6781
vn 0.6985 -0.0547 -0.7135
vn 0.6985 -0.0546 -0.7136
vn 0.7105 -0.6673 0.2236
vn 0.7081 -0.7038 0.0569
vn 0.7081 -0.7038 0.0571
vn 0.7080 -0.5652 0.4233
vn 0.7105 -0.6678 0.2220
vn 0.7050 -0.4085 0.5797
vn 0.7081 -0.5668 0.4212
vn 0.7027 -0.2139 0.6786
vn 0.7050 -0.4106 0.5782
vn 0.6985 -0.0548 0.7135
vn 0.7027 -0.2154 0.6781
vn 0.7082 0.7037 0.0569
vn 0.6985 -0.0546 0.7135
vn 0.6985 0.0546 -0.7136
vn 0.7081 -0.7038 -0.0571
vn 0.0000 0.0000 -1.0000
vn 0.0000 0.0763 0.9971
vn 0.0000 0.9967 -0.0806
vn 0.0000 0.9968 -0.0805
vn 0.0000 0.0763 -0.9971
vn 0.0000 -0.0763 0.9971
vn 0.0000 -0.0763 -0.9971
vn 0.0000 -0.9967 -0.0807
vn 0.0000 0.9967 0.0806
vn 0.0000 -0.9967 0.0807
vn 0.0000 0.9487 0.3163
vn 0.0000 0.5777 -0.8162
vn 0.0000 0.3018 -0.9534
vn 0.0000 -0.9486 -0.3164
vn 0.0000 0.9486 -0.3163
vn 0.0000 0.8016 -0.5978
vn 0.0000 0.9487 -0.3162
vn 0.0000 0.8016 -0.5979
vn 0.0000 0.3018 0.9534
vn 0.0000 0.8016 0.5978
vn 0.0000 0.5777 0.8162
vn 0.0000 -0.3018 0.9534
vn 0.0000 -0.3018 -0.9534
vn 0.0000 -0.8016 -0.5978
vn 0.0000 -0.5777 -0.8162
vn 0.0000 -0.5777 0.8162
vn 0.0000 -0.9486 0.3164
vn 0.0000 -0.8016 0.5978
vn 1.0000 -0.0001 0.0000
s 1
f 1/1/1 6/2/1 2/3/1
f 12/4/2 13/5/2 7/6/2
f 21/7/3 22/8/3 16/9/2
f 32/10/2 33/11/2 26/12/2
f 2/3/4 34/13/4 3/14/4
f 3/14/5 35/15/5 4/16/5
f 7/17/2 37/18/2 36/19/2
f 43/20/2 44/21/2 36/22/2
f 16/23/2 27/24/2 26/25/2
f 36/26/2 17/27/2 16/28/2
f 26/29/2 8/30/2 7/31/2
f 16/23/6 5/32/6 35/15/6
f 7/31/7 5/32/7 26/29/7
f 36/19/8 6/2/8 7/17/8
f 16/28/9 34/13/9 36/26/9
f 43/20/10 46/33/11 44/21/12
f 42/34/13 45/35/14 43/20/10
f 41/36/15 47/37/16 42/34/13
f 40/38/17 48/39/18 41/36/15
f 40/38/17 50/40/19 49/41/20
f 19/42/21 51/43/22 52/44/23
f 20/45/24 52/46/23 53/47/25
f 21/7/26 53/47/25 54/48/27
f 22/8/28 54/48/27 55/49/29
f 22/8/28 56/50/30 23/51/31
f 10/52/32 57/53/33 58/54/34
f 11/55/35 58/56/34 59/57/36
f 12/4/37 59/57/36 60/58/38
f 13/5/39 60/58/38 61/59/40
f 13/5/39 62/60/41 14/61/42
f 32/10/43 64/62/44 33/11/45
f 31/63/46 63/64/47 32/10/43
f 30/65/48 65/66/49 31/63/46
f 29/67/50 66/68/51 30/65/48
f 29/67/50 68/69/52 67/70/53
f 23/51/31 69/71/8 24/72/8
f 18/73/54 70/74/7 51/43/22
f 28/75/55 71/76/8 68/69/52
f 33/11/45 72/77/9 25/78/9
f 44/21/12 73/79/7 38/80/7
f 39/81/56 74/82/6 50/40/19
f 14/61/42 75/83/6 15/84/6
f 9/85/57 76/86/9 57/53/33
f 4/16/58 5/32/58 1/1/58
f 78/87/4 56/88/59 77/89/59
f 80/90/1 46/91/60 79/92/61
f 82/93/5 72/77/5 81/94/5
f 84/95/62 74/96/58 83/97/58
f 86/98/63 71/76/4 85/99/4
f 88/100/58 62/101/64 87/102/64
f 89/103/1 73/104/1 80/90/1
f 90/105/65 76/106/5 82/93/5
f 91/107/66 70/108/1 89/103/1
f 81/94/5 64/62/67 92/109/67
f 91/107/66 52/46/68 51/110/66
f 83/97/58 75/111/58 88/100/58
f 48/39/69 95/112/70 94/113/69
f 90/105/65 58/56/71 57/114/65
f 45/35/72 98/115/73 97/116/74
f 47/37/75 94/113/69 98/115/73
f 46/91/60 97/116/74 79/92/61
f 99/117/76 56/88/59 55/49/76
f 100/118/77 54/48/78 53/47/77
f 101/119/78 55/49/76 54/48/78
f 67/70/79 86/98/63 102/120/79
f 93/121/68 53/47/77 52/46/68
f 103/122/80 62/101/64 61/59/80
f 104/123/81 60/58/82 59/57/81
f 105/124/82 61/59/80 60/58/82
f 96/125/71 59/57/81 58/56/71
f 66/68/83 102/120/79 106/126/83
f 49/127/70 84/95/62 95/112/70
f 63/64/84 108/128/85 107/129/84
f 65/66/85 106/126/83 108/128/85
f 64/62/67 107/129/84 92/109/67
f 85/99/4 69/130/4 78/87/4
f 70/108/7 38/131/7 73/104/7
f 76/106/9 25/78/9 72/77/9
f 71/76/8 24/132/8 69/130/8
f 74/96/6 15/133/6 75/111/6
f 1/1/1 5/32/1 6/2/1
f 15/84/2 7/6/2 14/61/2
f 7/6/2 8/30/2 9/85/2
f 14/61/2 7/6/2 13/5/2
f 9/85/2 10/52/2 7/6/2
f 10/52/2 11/55/2 7/6/2
f 11/55/2 12/4/2 7/6/2
f 24/72/2 16/9/2 23/51/2
f 16/9/2 17/27/2 18/73/2
f 23/51/2 16/9/2 22/8/3
f 18/73/2 19/42/86 16/9/2
f 19/42/86 20/45/86 16/9/2
f 20/45/86 21/7/3 16/9/2
f 33/11/2 25/78/2 26/12/2
f 26/12/2 27/24/2 28/75/2
f 28/75/2 29/67/86 26/12/2
f 29/67/86 30/65/2 26/12/2
f 30/65/2 31/63/3 26/12/2
f 31/63/3 32/10/2 26/12/2
f 2/3/4 6/2/4 34/13/4
f 3/14/5 34/13/5 35/15/5
f 7/17/2 15/84/2 37/18/2
f 44/21/2 38/80/2 36/22/2
f 36/22/2 37/18/2 39/81/2
f 39/81/2 40/38/2 36/22/2
f 40/38/2 41/36/2 36/22/2
f 41/36/2 42/34/2 36/22/2
f 42/34/2 43/20/2 36/22/2
f 16/23/2 24/72/2 27/24/2
f 36/26/2 38/80/2 17/27/2
f 26/29/2 25/78/2 8/30/2
f 16/23/6 26/25/6 5/32/6
f 7/31/7 6/2/7 5/32/7
f 36/19/8 34/13/8 6/2/8
f 16/28/9 35/15/9 34/13/9
f 43/20/10 45/134/14 46/33/11
f 42/34/13 47/37/16 45/35/14
f 41/36/15 48/39/18 47/37/16
f 40/38/17 49/127/20 48/39/18
f 40/38/17 39/81/56 50/40/19
f 19/42/21 18/73/54 51/43/22
f 20/45/24 19/42/21 52/46/23
f 21/7/26 20/45/24 53/47/25
f 22/8/28 21/7/26 54/48/27
f 22/8/28 55/135/29 56/50/30
f 10/52/32 9/85/57 57/53/33
f 11/55/35 10/52/32 58/56/34
f 12/4/37 11/55/35 59/57/36
f 13/5/39 12/4/37 60/58/38
f 13/5/39 61/136/40 62/60/41
f 32/10/43 63/64/47 64/62/44
f 31/63/46 65/66/49 63/64/47
f 30/65/48 66/68/51 65/66/49
f 29/67/50 67/70/53 66/68/51
f 29/67/50 28/75/55 68/69/52
f 23/51/31 56/50/30 69/71/8
f 18/73/54 17/27/7 70/74/7
f 28/75/55 27/24/8 71/76/8
f 33/11/45 64/62/44 72/77/9
f 44/21/12 46/33/11 73/79/7
f 39/81/56 37/18/6 74/82/6
f 14/61/42 62/60/41 75/83/6
f 9/85/57 8/30/9 76/86/9
f 4/16/58 35/15/58 5/32/58
f 78/87/4 69/130/4 56/88/59
f 80/90/1 73/104/1 46/91/60
f 82/93/5 76/106/5 72/77/5
f 84/95/62 50/137/62 74/96/58
f 86/98/63 68/69/63 71/76/4
f 88/100/58 75/111/58 62/101/64
f 89/103/1 70/108/1 73/104/1
f 90/105/65 57/114/65 76/106/5
f 91/107/66 51/110/66 70/108/1
f 81/94/5 72/77/5 64/62/67
f 91/107/66 93/121/68 52/46/68
f 83/97/58 74/96/58 75/111/58
f 48/39/69 49/127/70 95/112/70
f 90/105/65 96/125/71 58/56/71
f 45/35/72 47/37/75 98/115/73
f 47/37/75 48/39/69 94/113/69
f 46/91/60 45/35/72 97/116/74
f 99/117/76 77/89/59 56/88/59
f 100/118/77 101/119/78 54/48/78
f 101/119/78 99/117/76 55/49/76
f 67/70/79 68/69/63 86/98/63
f 93/121/68 100/118/77 53/47/77
f 103/122/80 87/102/64 62/101/64
f 104/123/81 105/124/82 60/58/82
f 105/124/82 103/122/80 61/59/80
f 96/125/71 104/123/81 59/57/81
f 66/68/83 67/70/79 102/120/79
f 49/127/70 50/137/62 84/95/62
f 63/64/84 65/66/85 108/128/85
f 65/66/85 66/68/83 106/126/83
f 64/62/67 63/64/84 107/129/84
f 85/99/4 71/76/4 69/130/4
f 70/108/7 17/138/7 38/131/7
f 76/106/9 8/139/9 25/78/9
f 71/76/8 27/24/8 24/132/8
f 74/96/6 37/140/6 15/133/6
