# Blender v2.79 (sub 0) OBJ File: 'scene.blend1'
# www.blender.org
o table
v -0.715368 0.070521 0.084006
v -0.715368 0.090762 0.084006
v -0.715368 0.090762 0.063765
v -0.715368 0.070521 0.063765
v 0.489255 0.070521 0.063765
v 0.489255 0.090762 0.063765
v 0.510778 0.090762 0.063765
v 0.510778 0.070521 0.063765
v 0.510778 0.090762 0.084006
v 0.510778 0.070521 0.084006
v 0.489255 0.070521 0.084006
v -0.715368 0.444460 0.063765
v -0.715368 0.444460 0.084006
v -0.715368 0.471884 0.084006
v -0.715368 0.471884 0.063765
v -0.693845 0.090762 0.063765
v -0.693845 0.090762 0.084006
v 0.489255 0.090762 0.084006
v -0.693845 0.070521 0.063765
v -0.693845 0.070521 0.084006
v -0.715368 0.070521 1.133095
v -0.693845 0.070521 1.133095
v -0.693845 0.070521 1.157306
v -0.715368 0.070521 1.157306
v -0.693845 0.090762 1.157306
v -0.715368 0.090762 1.157306
v 0.510778 0.070521 1.157306
v 0.510778 0.090762 1.157306
v 0.489255 0.090762 1.157306
v 0.489255 0.070521 1.157306
v -0.715368 0.090762 1.133095
v 0.489255 0.070521 1.133095
v 0.510778 0.070521 1.133095
v -0.693845 0.090762 1.133095
v 0.489255 0.090762 1.133095
v -0.715368 0.444460 1.157306
v -0.693845 0.444460 1.157306
v -0.693845 0.471884 1.157306
v -0.715368 0.471884 1.157306
v 0.510778 0.090762 1.133095
v -0.693845 0.444460 1.133095
v -0.693845 0.471884 1.133095
v 0.489255 0.471884 1.133095
v 0.489255 0.444460 1.133095
v -0.693845 0.471884 0.063765
v -0.693845 0.471884 0.084006
v 0.510778 0.471884 0.063765
v 0.489255 0.471884 0.063765
v 0.489255 0.471884 0.084006
v 0.510778 0.471884 0.084006
v -0.715368 0.471884 1.133095
v 0.510778 0.471884 1.133095
v 0.489255 0.471884 1.157306
v 0.510778 0.471884 1.157306
v -0.715368 0.444460 1.133095
v 0.489255 0.444460 1.157306
v 0.510778 0.444460 1.157306
v 0.510778 0.444460 0.063765
v 0.489255 0.444460 0.063765
v 0.510778 0.444460 1.133095
v -0.693845 0.444460 0.063765
v 0.510778 0.444460 0.084006
v -0.693845 0.444460 0.084006
v 0.489255 0.444460 0.084006
vn -1.0000 0.0000 0.0000
vn 0.0000 0.0000 -1.0000
vn 1.0000 0.0000 0.0000
vn 0.0000 -1.0000 0.0000
vn 0.0000 1.0000 0.0000
vn 0.0000 0.0000 1.0000
s 1
f 2//1 4//1 1//1
f 6//2 8//2 5//2
f 7//3 10//3 8//3
f 8//4 11//4 5//4
f 13//1 15//1 12//1
f 16//5 18//5 6//5
f 19//4 1//4 4//4
f 5//4 20//4 19//4
f 22//4 24//4 21//4
f 18//6 20//6 11//6
f 3//2 19//2 4//2
f 16//2 5//2 19//2
f 25//6 24//6 23//6
f 28//6 30//6 27//6
f 21//1 26//1 31//1
f 33//4 30//4 32//4
f 25//5 35//5 34//5
f 37//6 39//6 36//6
f 40//3 27//3 33//3
f 42//2 44//2 41//2
f 2//5 34//5 17//5
f 1//1 31//1 2//1
f 20//4 21//4 1//4
f 17//3 22//3 20//3
f 18//5 40//5 9//5
f 9//3 33//3 10//3
f 11//1 35//1 18//1
f 10//4 32//4 11//4
f 34//2 32//2 22//2
f 29//6 23//6 30//6
f 32//4 23//4 22//4
f 15//5 46//5 45//5
f 48//5 50//5 47//5
f 51//5 38//5 42//5
f 43//5 54//5 52//5
f 36//1 51//1 55//1
f 57//6 53//6 56//6
f 38//5 43//5 42//5
f 37//4 44//4 56//4
f 59//2 47//2 58//2
f 60//3 54//3 57//3
f 53//6 37//6 56//6
f 12//2 45//2 61//2
f 58//3 50//3 62//3
f 40//3 57//3 28//3
f 35//2 60//2 40//2
f 28//6 56//6 29//6
f 29//1 44//1 35//1
f 31//2 41//2 34//2
f 26//1 55//1 31//1
f 34//3 37//3 25//3
f 25//6 36//6 26//6
f 3//2 61//2 16//2
f 16//3 63//3 17//3
f 17//6 13//6 2//6
f 2//1 12//1 3//1
f 7//3 62//3 9//3
f 18//1 59//1 6//1
f 6//2 58//2 7//2
f 9//6 64//6 18//6
f 14//5 42//5 46//5
f 55//1 14//1 13//1
f 41//3 46//3 42//3
f 13//4 41//4 55//4
f 48//5 46//5 49//5
f 59//2 45//2 48//2
f 43//1 64//1 44//1
f 49//5 52//5 50//5
f 50//3 60//3 62//3
f 64//4 60//4 44//4
f 64//6 46//6 63//6
f 59//4 63//4 61//4
f 2//1 3//1 4//1
f 6//2 7//2 8//2
f 7//3 9//3 10//3
f 8//4 10//4 11//4
f 13//1 14//1 15//1
f 16//5 17//5 18//5
f 19//4 20//4 1//4
f 5//4 11//4 20//4
f 22//4 23//4 24//4
f 18//6 17//6 20//6
f 3//2 16//2 19//2
f 16//2 6//2 5//2
f 25//6 26//6 24//6
f 28//6 29//6 30//6
f 21//1 24//1 26//1
f 33//4 27//4 30//4
f 25//5 29//5 35//5
f 37//6 38//6 39//6
f 40//3 28//3 27//3
f 42//2 43//2 44//2
f 2//5 31//5 34//5
f 1//1 21//1 31//1
f 20//4 22//4 21//4
f 17//3 34//3 22//3
f 18//5 35//5 40//5
f 9//3 40//3 33//3
f 11//1 32//1 35//1
f 10//4 33//4 32//4
f 34//2 35//2 32//2
f 29//6 25//6 23//6
f 32//4 30//4 23//4
f 15//5 14//5 46//5
f 48//5 49//5 50//5
f 51//5 39//5 38//5
f 43//5 53//5 54//5
f 36//1 39//1 51//1
f 57//6 54//6 53//6
f 38//5 53//5 43//5
f 37//4 41//4 44//4
f 59//2 48//2 47//2
f 60//3 52//3 54//3
f 53//6 38//6 37//6
f 12//2 15//2 45//2
f 58//3 47//3 50//3
f 40//3 60//3 57//3
f 35//2 44//2 60//2
f 28//6 57//6 56//6
f 29//1 56//1 44//1
f 31//2 55//2 41//2
f 26//1 36//1 55//1
f 34//3 41//3 37//3
f 25//6 37//6 36//6
f 3//2 12//2 61//2
f 16//3 61//3 63//3
f 17//6 63//6 13//6
f 2//1 13//1 12//1
f 7//3 58//3 62//3
f 18//1 64//1 59//1
f 6//2 59//2 58//2
f 9//6 62//6 64//6
f 14//5 51//5 42//5
f 55//1 51//1 14//1
f 41//3 63//3 46//3
f 13//4 63//4 41//4
f 48//5 45//5 46//5
f 59//2 61//2 45//2
f 43//1 49//1 64//1
f 49//5 43//5 52//5
f 50//3 52//3 60//3
f 64//4 62//4 60//4
f 64//6 49//6 46//6
f 59//4 64//4 63//4
