# Blender v2.79 (sub 0) OBJ File: 'scene.blend1'
# www.blender.org
o window_mold
v -3.421542 0.769139 -4.961731
v -3.421542 0.875161 -4.961731
v -3.421542 0.769139 -5.067753
v -3.421542 0.875161 -5.067753
v 3.408737 0.769139 -4.961731
v 3.408737 0.875161 -4.961731
v 3.408737 0.769139 -5.067753
v 3.408737 0.875161 -5.067753
v 3.271039 0.769139 -5.067753
v -3.283845 0.769139 -5.067753
v -3.283844 0.875161 -5.067753
v 3.271039 0.875161 -5.067753
v -3.283844 0.769139 -4.961731
v 3.271039 0.769139 -4.961731
v 3.271039 0.875161 -4.961731
v -3.283845 0.875161 -4.961731
v -3.421542 4.302346 -4.961731
v -3.421542 4.302346 -5.067753
v 3.271039 4.302346 -5.067753
v 3.408737 4.302346 -5.067753
v 3.408737 4.302346 -4.961731
v -3.283845 4.302346 -4.961731
v -3.283844 4.302346 -5.067753
v 3.271039 4.302346 -4.961731
v 3.271039 4.166455 -4.961731
v 3.271039 4.166455 -5.067753
v 3.408737 4.166455 -4.961731
v 3.408737 4.166455 -5.067753
v -3.421542 4.166455 -5.067753
v -3.283844 4.166455 -5.067753
v -3.283845 4.166455 -4.961731
v -3.421542 4.166455 -4.961731
vn -1.0000 0.0000 0.0000
vn 0.0000 0.0000 -1.0000
vn 1.0000 0.0000 0.0000
vn 0.0000 0.0000 1.0000
vn 0.0000 -1.0000 -0.0000
vn 0.0000 1.0000 0.0000
s off
f 2//1 3//1 1//1
f 12//2 7//2 9//2
f 8//3 5//3 7//3
f 16//4 1//4 13//4
f 7//5 14//5 9//5
f 27//4 24//4 25//4
f 11//6 15//6 12//6
f 10//5 1//5 3//5
f 9//5 13//5 10//5
f 6//4 14//4 5//4
f 15//4 13//4 14//4
f 4//2 10//2 3//2
f 11//2 9//2 10//2
f 18//6 22//6 23//6
f 19//6 21//6 20//6
f 26//2 20//2 28//2
f 29//2 23//2 30//2
f 28//3 21//3 27//3
f 32//1 18//1 29//1
f 31//4 17//4 32//4
f 8//3 27//3 6//3
f 12//2 28//2 8//2
f 15//1 26//1 12//1
f 6//4 25//4 15//4
f 16//4 32//4 2//4
f 2//1 29//1 4//1
f 11//3 31//3 16//3
f 4//2 30//2 11//2
f 30//2 19//2 26//2
f 31//5 26//5 25//5
f 19//6 22//6 24//6
f 24//4 31//4 25//4
f 2//1 4//1 3//1
f 12//2 8//2 7//2
f 8//3 6//3 5//3
f 16//4 2//4 1//4
f 7//5 5//5 14//5
f 27//4 21//4 24//4
f 11//6 16//6 15//6
f 10//5 13//5 1//5
f 9//5 14//5 13//5
f 6//4 15//4 14//4
f 15//4 16//4 13//4
f 4//2 11//2 10//2
f 11//2 12//2 9//2
f 18//6 17//6 22//6
f 19//6 24//6 21//6
f 26//2 19//2 20//2
f 29//2 18//2 23//2
f 28//3 20//3 21//3
f 32//1 17//1 18//1
f 31//4 22//4 17//4
f 8//3 28//3 27//3
f 12//2 26//2 28//2
f 15//1 25//1 26//1
f 6//4 27//4 25//4
f 16//4 31//4 32//4
f 2//1 32//1 29//1
f 11//3 30//3 31//3
f 4//2 29//2 30//2
f 30//2 23//2 19//2
f 31//5 30//5 26//5
f 19//6 23//6 22//6
f 24//4 22//4 31//4
